<svg xmlns="http://www.w3.org/2000/svg" version="1.1" xmlns:xlink="http://www.w3.org/1999/xlink" xmlns:svgjs="http://svgjs.dev/svgjs" width="2000" height="1500" viewBox="0 0 2000 1500"><rect width="2000" height="1500" fill="#ffffff"></rect><g transform="matrix(0.44365572315882873,0,0,0.44365572315882873,555.8084141220654,248.38709677419354)"><svg viewBox="0 0 220 248" data-background-color="#ffffff" preserveAspectRatio="xMidYMid meet" height="2254" width="2000" xmlns="http://www.w3.org/2000/svg" xmlns:xlink="http://www.w3.org/1999/xlink"><g id="tight-bounds" transform="matrix(1,0,0,1,0.13286180257512115,0.4000000000000057)"><svg viewBox="0 0 219.73427639484976 247.2" height="247.2" width="219.73427639484976"><rect width="219.73427639484976" height="247.2" fill="url(#941abfd2-8e77-41ee-9907-7e4ee240481d)" mask="url(#39593f74-cf47-49af-80e1-529e3aefc4b0)" data-fill-palette-color="tertiary"></rect><g><svg viewBox="0 0 219.73427639484981 247.20000000000005" height="247.2" width="219.73427639484976"><g><svg viewBox="0 0 219.73427639484981 247.20000000000005" height="247.20000000000005" width="219.73427639484981"><g id="textblocktransform"><svg viewBox="0 0 219.73427639484981 247.20000000000005" height="247.20000000000005" width="219.73427639484981" id="textblock"><g><svg viewBox="0 0 219.73427639484981 247.20000000000005" height="247.20000000000005" width="219.73427639484981"><rect width="219.73427639484981" height="247.20000000000005" x="0" y="0" opacity="1" fill="url(#941abfd2-8e77-41ee-9907-7e4ee240481d)" data-fill-palette-color="tertiary"></rect><g transform="matrix(1,0,0,1,23.607600000000012,23.607599999999998)"><svg width="172.5190763948498" viewBox="2.15 -34.6 30.15 34.95" height="199.98480000000004" data-palette-color="#ffffff"><path d="M17.1-34.6L17.1-34.6Q23.05-34.6 27.25-32.15 31.45-29.7 31.45-26.95L31.45-26.95Q31.45-26.2 31.13-25.68 30.8-25.15 30.33-24.93 29.85-24.7 29.3-24.7L29.3-24.7Q28.4-24.7 26.6-25.63 24.8-26.55 22.6-27.48 20.4-28.4 18.55-28.4L18.55-28.4Q15.6-28.4 15.6-26L15.6-26Q15.6-25.25 16.07-24.58 16.55-23.9 17.6-23.18 18.65-22.45 19.65-21.9 20.65-21.35 22.4-20.43 24.15-19.5 25.35-18.8L25.35-18.8Q29.2-16.6 30.75-14.6 32.3-12.6 32.3-10L32.3-10Q32.3 0.35 18.35 0.35L18.35 0.35Q15.6 0.35 13.03-0.2 10.45-0.75 8.53-1.65 6.6-2.55 5.13-3.65 3.65-4.75 2.9-5.9 2.15-7.05 2.15-8.05L2.15-8.05Q2.15-9.15 2.88-9.93 3.6-10.7 5-10.7L5-10.7Q6.05-10.7 10.05-9.38 14.05-8.05 16.5-8.05L16.5-8.05Q18.75-8.05 18.75-9.6L18.75-9.6Q18.75-10.05 18.57-10.43 18.4-10.8 17.98-11.18 17.55-11.55 17.03-11.88 16.5-12.2 15.58-12.7 14.65-13.2 13.73-13.7 12.8-14.2 11.3-15 9.8-15.8 8.4-16.6L8.4-16.6Q6.55-17.65 5.23-19.2 3.9-20.75 3.3-22.28 2.7-23.8 2.7-25.1L2.7-25.1Q2.7-29.3 6.45-31.95 10.2-34.6 17.1-34.6Z" opacity="1" transform="matrix(1,0,0,1,0,0)" fill="#ffffff" class="wordmark-text-0" data-fill-palette-color="quaternary" id="text-0"></path></svg></g></svg></g></svg></g></svg></g><g></g></svg></g><defs></defs><mask id="39593f74-cf47-49af-80e1-529e3aefc4b0"><g id="SvgjsG4336"><svg viewBox="0 0 219.73427639484976 247.2" height="247.2" width="219.73427639484976"><g><svg viewBox="0 0 219.73427639484981 247.20000000000005" height="247.2" width="219.73427639484976"><g><svg viewBox="0 0 219.73427639484981 247.20000000000005" height="247.20000000000005" width="219.73427639484981"><g id="SvgjsG4335"><svg viewBox="0 0 219.73427639484981 247.20000000000005" height="247.20000000000005" width="219.73427639484981" id="SvgjsSvg4334"><g><svg viewBox="0 0 219.73427639484981 247.20000000000005" height="247.20000000000005" width="219.73427639484981"><rect width="219.73427639484981" height="247.20000000000005" x="0" y="0" opacity="1" fill="white"></rect><g transform="matrix(1,0,0,1,23.607600000000012,23.607599999999998)"><svg width="172.5190763948498" viewBox="2.15 -34.6 30.15 34.95" height="199.98480000000004" data-palette-color="#ffffff"><path d="M17.1-34.6L17.1-34.6Q23.05-34.6 27.25-32.15 31.45-29.7 31.45-26.95L31.45-26.95Q31.45-26.2 31.13-25.68 30.8-25.15 30.33-24.93 29.85-24.7 29.3-24.7L29.3-24.7Q28.4-24.7 26.6-25.63 24.8-26.55 22.6-27.48 20.4-28.4 18.55-28.4L18.55-28.4Q15.6-28.4 15.6-26L15.6-26Q15.6-25.25 16.07-24.58 16.55-23.9 17.6-23.18 18.65-22.45 19.65-21.9 20.65-21.35 22.4-20.43 24.15-19.5 25.35-18.8L25.35-18.8Q29.2-16.6 30.75-14.6 32.3-12.6 32.3-10L32.3-10Q32.3 0.35 18.35 0.35L18.35 0.35Q15.6 0.35 13.03-0.2 10.45-0.75 8.53-1.65 6.6-2.55 5.13-3.65 3.65-4.75 2.9-5.9 2.15-7.05 2.15-8.05L2.15-8.05Q2.15-9.15 2.88-9.93 3.6-10.7 5-10.7L5-10.7Q6.05-10.7 10.05-9.38 14.05-8.05 16.5-8.05L16.5-8.05Q18.75-8.05 18.75-9.6L18.75-9.6Q18.75-10.05 18.57-10.43 18.4-10.8 17.98-11.18 17.55-11.55 17.03-11.88 16.5-12.2 15.58-12.7 14.65-13.2 13.73-13.7 12.8-14.2 11.3-15 9.8-15.8 8.4-16.6L8.4-16.6Q6.55-17.65 5.23-19.2 3.9-20.75 3.3-22.28 2.7-23.8 2.7-25.1L2.7-25.1Q2.7-29.3 6.45-31.95 10.2-34.6 17.1-34.6Z" opacity="1" transform="matrix(1,0,0,1,0,0)" fill="black" class="wordmark-text-0" id="SvgjsPath4333"></path></svg></g></svg></g></svg></g></svg></g><g></g></svg></g><defs><mask></mask></defs></svg><rect width="219.73427639484976" height="247.2" fill="black" stroke="none" visibility="hidden"></rect></g></mask><linearGradient x1="0.054" x2="0.941" y1="0.5" y2="0.5" id="941abfd2-8e77-41ee-9907-7e4ee240481d"><stop stop-color="#864d25" offset="0"></stop><stop stop-color="#f1c4b3" offset="0.498"></stop><stop stop-color="#864d25" offset="1"></stop></linearGradient></svg><rect width="219.73427639484976" height="247.2" fill="none" stroke="none" visibility="hidden"></rect></g></svg></g></svg>